<?xml version="1.0" encoding="utf-8"?>
<!-- Generator: Adobe Illustrator 21.1.0, SVG Export Plug-In . SVG Version: 6.00 Build 0)  -->
<svg version="1.1" id="Capa_1" xmlns="http://www.w3.org/2000/svg" xmlns:xlink="http://www.w3.org/1999/xlink" x="0px" y="0px"
	 viewBox="0 0 512 512" style="enable-background:new 0 0 512 512;" xml:space="preserve">
<style type="text/css">
	.st0{fill:#797D80;}
</style>
<path class="st0" d="M328.5,455.9l14.9,10.5l0.5,0.4l1,0.4l10.8,5.2l-0.3-0.8c10.3,4.2,21,7.2,32.8,7.2c51.9,0,93.9-43.7,93.9-97.5
	s-42.1-97.5-93.9-97.5c-16.6,0-32,4.8-45.6,12.8c4.7-52.2,30.9-128.2,127.2-205.8c13.5-10.8,15.9-31,5.5-44.9
	c-6.1-8.2-15.2-12.4-24.4-12.4c-6.6,0-13.3,2.2-18.9,6.7c-118.1,95.4-147.7,193.3-151.6,258.7c-6.8,83.7,18.6,127.6,41.8,150.6
	L328.5,455.9z"/>
<path class="st0" d="M73.1,449.3l6.5,6.6l14.8,10.5l0.5,0.4l1,0.4l10.8,5.2l-0.3-0.8c10.3,4.2,21.1,7.2,32.8,7.2
	c51.8,0,93.8-43.7,93.8-97.5s-42-97.5-93.9-97.5c-16.6,0-32,4.8-45.6,12.8c4.6-52.2,30.9-128.2,127.1-205.8
	c13.5-10.8,15.9-31,5.5-44.9c-6.1-8.2-15.2-12.4-24.4-12.4c-6.6,0-13.3,2.2-18.9,6.7C64.6,135.3,35.1,233.2,31.1,298.7
	C24.4,382.3,49.7,426.3,73.1,449.3z"/>
</svg>
